<svg t="1600076824777" class="icon" viewBox="0 0 1024 1024" version="1.1" xmlns="http://www.w3.org/2000/svg" p-id="7737" width="200" height="200"><path d="M923.738353 359.303529h-101.345882v400.745412c0 33.069176-26.804706 59.873882-59.873883 59.873883H255.819294a59.873882 59.873882 0 0 1-59.873882-59.873883V202.691765H80.775529C52.796235 202.691765 30.117647 225.370353 30.117647 253.349647v686.351059c0 35.599059 28.912941 64.481882 64.481882 64.481882h829.138824a64.512 64.512 0 0 0 64.512-64.481882v-515.915294a64.481882 64.481882 0 0 0-64.512-64.481883" fill="#FF7E50" p-id="7738"></path><path d="M509.168941 253.349647v105.953882h313.22353V59.873882C822.392471 26.804706 795.587765 0 762.518588 0H255.819294C222.750118 0 195.945412 26.804706 195.945412 59.873882V202.691765h262.535529c28.009412 0 50.688 22.678588 50.688 50.688" fill="#F9D11F" p-id="7739"></path><path d="M255.819294 819.922824h506.699294c33.069176 0 59.873882-26.804706 59.873883-59.873883V359.303529h-313.22353V253.349647c0-27.979294-22.678588-50.657882-50.688-50.657882H195.945412v557.357176c0 33.069176 26.804706 59.873882 59.873882 59.873883" fill="#ED4042" p-id="7740"></path></svg>